<svg xmlns="http://www.w3.org/2000/svg" xmlns:svg="http://www.w3.org/2000/svg" xmlns:xlink="http://www.w3.org/1999/xlink" id="svg1" width="128" height="128" x="0" y="0" version="1.0"><defs id="defs3"><linearGradient id="linearGradient919"><stop style="stop-color:#000;stop-opacity:.86092716" id="stop920" offset="0"/><stop style="stop-color:#fff;stop-opacity:0" id="stop921" offset="1"/></linearGradient><linearGradient id="linearGradient1068"><stop offset="0" style="stop-color:#d2d2d2;stop-opacity:1" id="stop1070"/><stop offset="1" style="stop-color:#fff;stop-opacity:1" id="stop1069"/></linearGradient><linearGradient id="linearGradient1065"><stop offset="0" style="stop-color:#fff;stop-opacity:1" id="stop1067"/><stop offset="1" style="stop-color:#c2bfbf;stop-opacity:.99607843" id="stop1066"/></linearGradient><linearGradient id="linearGradient1060"><stop offset="0" style="stop-color:#878787;stop-opacity:1" id="stop1063"/><stop offset="1" style="stop-color:#000;stop-opacity:.99607843" id="stop1061"/></linearGradient><linearGradient id="linearGradient645"><stop style="stop-color:#aca597;stop-opacity:1" id="stop646" offset="0"/><stop style="stop-color:#fff;stop-opacity:1" id="stop647" offset="1"/></linearGradient><linearGradient id="linearGradient593"><stop style="stop-color:#478acf;stop-opacity:1" id="stop594" offset="0"/><stop style="stop-color:#65c6f7;stop-opacity:1" id="stop595" offset="1"/></linearGradient><linearGradient id="linearGradient574"><stop style="stop-color:#85ad92;stop-opacity:1" id="stop575" offset="0"/><stop style="stop-color:#559db2;stop-opacity:.7725" id="stop576" offset="1"/></linearGradient><linearGradient id="linearGradient570"><stop style="stop-color:#999;stop-opacity:.7176" id="stop571" offset="0"/><stop style="stop-color:#fff;stop-opacity:.3725" id="stop572" offset="1"/></linearGradient><linearGradient id="linearGradient573" x1="40.459" x2="36.064" y1="389.656" y2="357.284" gradientTransform="matrix(2.3025192,0,0,0.29683004,-0.91913426,-1.5117091)" gradientUnits="userSpaceOnUse" xlink:href="#linearGradient1068"/><linearGradient id="linearGradient1213" x1="123.714" x2="98.354" y1="141.416" y2="113.411" gradientTransform="matrix(0.91680324,0,0,0.74547827,-0.91913426,-1.5117091)" gradientUnits="userSpaceOnUse" xlink:href="#linearGradient1068"/><radialGradient id="radialGradient581" cx=".096" cy=".168" r="1.541" fx=".096" fy=".168" xlink:href="#linearGradient919"/><linearGradient id="linearGradient580" x1="132.035" x2="119.624" y1="135.685" y2="111.072" gradientTransform="matrix(0.90170536,0,0,0.75796032,-0.91913426,-1.5117091)" gradientUnits="userSpaceOnUse" xlink:href="#linearGradient1068"/><linearGradient id="linearGradient901" x1=".935" x2="-.053" y1=".92" y2=".203" xlink:href="#linearGradient1060"/><linearGradient id="linearGradient902" xlink:href="#linearGradient593"/><linearGradient id="linearGradient916" x1=".148" x2=".434" y1="-1.688" y2="1.813" xlink:href="#linearGradient1068"/><defs id="defs890"><linearGradient id="linearGradient922" x1="0" x2="1" y1=".5" y2=".5" gradientUnits="objectBoundingBox" spreadMethod="pad" xlink:href="#linearGradient1065"/><linearGradient id="linearGradient908" x1="0" x2="1" y1=".5" y2=".5" gradientUnits="objectBoundingBox" spreadMethod="pad" xlink:href="#linearGradient1060"/><linearGradient id="linearGradient894" x1="0" x2="1" y1=".5" y2=".5" gradientUnits="objectBoundingBox" spreadMethod="pad" xlink:href="#linearGradient1068"/><linearGradient id="linearGradient897" x1=".596" x2=".613" y1="-.336" y2="1.191" xlink:href="#linearGradient894"/><linearGradient id="linearGradient898" x1=".964" x2=".467" y1="1.028" y2=".218" xlink:href="#linearGradient894"/><linearGradient id="linearGradient907" x1=".571" x2=".333" y1="2.377" y2=".492" xlink:href="#linearGradient908"/><linearGradient id="linearGradient921" x1=".471" x2=".465" y1=".154" y2=".984" xlink:href="#linearGradient922"/><linearGradient id="linearGradient948" xlink:href="#linearGradient922"/><defs id="defs987"><linearGradient id="linearGradient855" x1="0" x2="1" y1=".5" y2=".5" gradientUnits="objectBoundingBox" spreadMethod="pad" xlink:href="#linearGradient908"/><linearGradient id="linearGradient1188" x1="0" x2="1" y1=".5" y2=".5" gradientUnits="objectBoundingBox" spreadMethod="pad" xlink:href="#linearGradient922"/><linearGradient id="linearGradient831"><stop style="stop-color:#94897f;stop-opacity:1" id="stop832" offset="0"/><stop style="stop-color:#fff5fe;stop-opacity:1" id="stop833" offset="1"/></linearGradient><linearGradient id="linearGradient834" x1=".876" x2="-.293" y1=".348" y2=".935" gradientUnits="objectBoundingBox" spreadMethod="pad" xlink:href="#linearGradient1188"/><radialGradient id="radialGradient835" cx=".591" cy=".281" r=".556" fx=".591" fy=".281" spreadMethod="pad" xlink:href="#linearGradient1188"/><linearGradient id="linearGradient893" x1=".128" x2=".496" y1=".769" y2=".709" xlink:href="#linearGradient1188"/><linearGradient id="linearGradient625" x1=".036" x2=".054" y1="1.028" y2="-.359" xlink:href="#linearGradient855"/><linearGradient id="linearGradient627" x1="1.283" x2="-.155" y1=".126" y2=".964" xlink:href="#linearGradient1188"/><radialGradient id="radialGradient628" cx=".368" cy=".487" r="1.598" fx=".368" fy=".487" gradientTransform="scale(0.877379,1.139758)" xlink:href="#linearGradient1188"/><linearGradient id="linearGradient628" x1=".769" x2=".419" y1=".15" y2=".733" xlink:href="#linearGradient1188"/></defs></defs><linearGradient id="linearGradient1304" x1="-.202" x2=".678" y1=".217" y2=".575" xlink:href="#linearGradient1060"/><linearGradient id="linearGradient1322" x1=".324" x2=".24" y1=".779" y2=".265" xlink:href="#linearGradient1065"/><defs id="defs989"><linearGradient id="linearGradient850"><stop style="stop-color:#eed680;stop-opacity:1" id="stop852" offset="0"/><stop style="stop-color:#dfb546;stop-opacity:1" id="stop858" offset=".68"/><stop style="stop-color:#d8a429;stop-opacity:1" id="stop859" offset=".773"/><stop style="stop-color:#d1940c;stop-opacity:1" id="stop857" offset="1"/></linearGradient><linearGradient id="linearGradient569" x1=".119" x2=".594" y1=".126" y2=".661" spreadMethod="pad" xlink:href="#linearGradient850"/><linearGradient id="linearGradient839"><stop style="stop-color:#46a046;stop-opacity:1" id="stop840" offset="0"/><stop style="stop-color:#df421e;stop-opacity:1" id="stop841" offset=".394"/><stop style="stop-color:#ada7c8;stop-opacity:1" id="stop842" offset=".72"/><stop style="stop-color:#eed680;stop-opacity:1" id="stop843" offset="1"/></linearGradient><linearGradient id="linearGradient836" x1="0" x2="1" y1=".5" y2=".5" xlink:href="#linearGradient839"/><defs id="defs604"><linearGradient id="linearGradient622"><stop style="stop-color:#f8e29d;stop-opacity:.4471" id="stop623" offset="0"/><stop style="stop-color:#272d2d;stop-opacity:.4784" id="stop624" offset="1"/></linearGradient><linearGradient id="linearGradient617"><stop style="stop-color:#fff;stop-opacity:1" id="stop618" offset="0"/><stop style="stop-color:#000;stop-opacity:1" id="stop619" offset="1"/></linearGradient><linearGradient id="linearGradient613"><stop style="stop-color:#fff;stop-opacity:.6235" id="stop614" offset="0"/><stop style="stop-color:#5d6567;stop-opacity:1" id="stop615" offset="1"/></linearGradient><linearGradient id="linearGradient607"><stop style="stop-color:#d7d5d5;stop-opacity:1" id="stop608" offset="0"/><stop style="stop-color:#000;stop-opacity:.4039" id="stop609" offset="1"/></linearGradient><radialGradient id="radialGradient610" cx="1.429" cy=".753" r=".855" fx="1.429" fy=".753" gradientTransform="matrix(1,2.268336e-6,-1.975559e-5,1,5.713033e-8,3.856326e-8)" xlink:href="#linearGradient607"/><linearGradient id="linearGradient612" x1="7.702" x2="62.76" y1="-2.026" y2="56.138" gradientTransform="scale(0.9953779,1.0046436)" gradientUnits="userSpaceOnUse" xlink:href="#linearGradient617"/><radialGradient id="radialGradient616" cx="58.709" cy="53.832" r="43.552" fx="58.709" fy="53.832" gradientTransform="scale(0.99517298,1.0048504)" gradientUnits="userSpaceOnUse" xlink:href="#linearGradient613"/><linearGradient id="linearGradient621" xlink:href="#linearGradient617"/><linearGradient id="linearGradient626" x1="72.06" x2="32.409" y1="55.161" y2="12.127" gradientTransform="matrix(0.995134,-1.068631e-5,-1.31398e-7,1.00489,0,0)" gradientUnits="userSpaceOnUse" xlink:href="#linearGradient617"/><linearGradient id="linearGradient687" x1="67.707" x2="-10.031" y1="49.315" y2="4.607" gradientTransform="scale(0.99522839,1.0047945)" gradientUnits="userSpaceOnUse" xlink:href="#linearGradient607"/><linearGradient id="linearGradient742" x1="-7.438" x2="18.01" y1="25.924" y2="10.09" gradientTransform="scale(0.889853,1.123781)" xlink:href="#linearGradient617"/></defs></defs><linearGradient id="linearGradient2924" x1="41.674" x2="36.083" y1="320.409" y2="279.225" gradientTransform="matrix(2.3376099,0,0,0.29237422,-0.91913426,-1.5117091)" gradientUnits="userSpaceOnUse" xlink:href="#linearGradient1068"/><linearGradient id="linearGradient2926" x1="134.954" x2="102.054" y1="108.167" y2="71.836" gradientTransform="matrix(0.91680324,0,0,0.74547824,-0.91913426,-1.5117091)" gradientUnits="userSpaceOnUse" xlink:href="#linearGradient1068"/><linearGradient id="linearGradient2928" x1="145.322" x2="129.22" y1="101.972" y2="70.041" gradientTransform="matrix(0.90170536,0,0,0.75796032,-0.91913426,-1.5117091)" gradientUnits="userSpaceOnUse" xlink:href="#linearGradient1068"/></defs><rect style="fill-opacity:.47154475;fill-rule:evenodd;stroke-width:3pt" id="rect918" width="48.725" height="42.168" x="67.536" y="66.475" rx=".781" ry=".742"/><rect style="fill-opacity:.47154475;fill-rule:evenodd;stroke-width:3pt" id="rect1006" width="63.211" height="54.706" x="64.472" y="30.558" rx=".781" ry=".742"/><rect style="fill:#000;fill-opacity:.47058824;fill-rule:evenodd" id="rect1005" width="57.843" height="9.005" x="65.398" y="82.153" rx=".662" ry=".629"/><rect style="fill:url(#linearGradient2924);fill-opacity:.75;fill-rule:evenodd;stroke:#000;stroke-width:.82671446" id="rect1007" width="54.911" height="6.145" x="64.622" y="82.283" rx=".449" ry=".429"/><rect id="rect1009" width="57.905" height="47.084" x="63.785" y="32.457" rx="1.634" ry="1.782" style="font-size:12px;fill:url(#linearGradient2926);fill-rule:evenodd;stroke:#000;stroke-width:0"/><rect style="fill:#000;fill-opacity:.47058824;fill-rule:evenodd" id="rect971" width="44.587" height="6.941" x="68.25" y="106.245" rx=".662" ry=".629"/><rect id="rect1008" width="64.637" height="54.069" x="59.853" y="28.741" rx="1.397" ry="1.412" style="font-size:12px;fill:url(#linearGradient2928);fill-rule:evenodd;stroke:#000;stroke-width:1.65869105"/><rect id="rect976" width="51.129" height="39.964" x="66.359" y="34.896" rx=".542" ry=".542" style="font-size:12px;fill:#00b4ed;fill-opacity:1;fill-rule:evenodd;stroke:#000;stroke-width:.79054338;stroke-linejoin:round"/><metadata id="metadata982"/><rect id="rect575" width="44.635" height="36.294" x="67.006" y="67.938" rx="1.634" ry="1.782" style="font-size:12px;fill:url(#linearGradient1213);fill-rule:evenodd;stroke:#000;stroke-width:0"/><path style="font-size:12px;fill:#444040;fill-opacity:.47058824;fill-rule:evenodd" id="path672" d="m 68.473,57.85183 a 23.629898,3.2222576 0 1 1 -47.259797,0 23.629898,3.2222576 0 1 1 47.259797,0 z" transform="matrix(1.4221482,0,-0.30247168,1.9834766,9.6201687,-10.428817)"/><path style="font-size:12px;fill:#4e4d4b;fill-rule:evenodd;stroke:#000;stroke-width:2.30019999;stroke-opacity:.9565" id="path625" d="m 58.291138,27.531645 a 19.367088,19.556963 0 1 1 -38.734177,0 19.367088,19.556963 0 1 1 38.734177,0 z" transform="matrix(-1.0172416,-0.47376693,-0.5523759,1.3286212,116.84611,57.272851)"/><path style="font-size:12px;fill:url(#linearGradient612);fill-rule:evenodd;stroke:#000;stroke-width:2.06100011;stroke-opacity:.9565" id="path605" d="m 58.291138,27.531645 a 19.367088,19.556963 0 1 1 -38.734177,0 19.367088,19.556963 0 1 1 38.734177,0 z" transform="matrix(-1.4321234,-0.79696518,-1.1299666,2.2349846,128.07685,29.383033)"/><path style="font-size:12px;fill:url(#radialGradient616);fill-rule:evenodd;stroke:#000;stroke-width:.317;stroke-opacity:.97829997" id="path606" d="m 58.291138,27.531645 a 19.367088,19.556963 0 1 1 -38.734177,0 19.367088,19.556963 0 1 1 38.734177,0 z" transform="matrix(-1.1546358,-0.69851175,-0.95634664,1.9588777,108.06887,31.115628)"/><path style="font-size:12px;fill-rule:evenodd;stroke-width:1.63499999" id="path686" d="m 58.291138,27.531645 a 19.367088,19.556963 0 1 1 -38.734177,0 19.367088,19.556963 0 1 1 38.734177,0 z" transform="matrix(-0.39495459,-0.4546194,-0.52881207,0.94219495,73.198184,52.427791)"/><path style="font-size:12px;fill:url(#linearGradient687);fill-rule:evenodd;stroke:#3f3b3b;stroke-width:.77380002" id="path611" d="m 58.291138,27.531645 a 19.367088,19.556963 0 1 1 -38.734177,0 19.367088,19.556963 0 1 1 38.734177,0 z" transform="matrix(-0.36949013,-0.40957751,-0.49471918,0.84885391,70.248021,52.066881)"/><rect style="fill:url(#linearGradient573);fill-opacity:.75;fill-rule:evenodd;stroke:#000;stroke-width:.82671446" id="rect934" width="42.326" height="4.736" x="67.652" y="106.345" rx=".449" ry=".429"/><rect id="rect562" width="49.824" height="41.677" x="63.976" y="65.074" rx="1.397" ry="1.412" style="font-size:12px;fill:url(#linearGradient580);fill-rule:evenodd;stroke:#000;stroke-width:1.27855873;stroke-opacity:1"/><rect id="rect975" width="39.412" height="30.806" x="68.99" y="70.097" rx=".542" ry=".542" style="font-size:12px;fill:#003d88;fill-opacity:1;fill-rule:evenodd;stroke:#000;stroke-width:.61407685;stroke-linejoin:round;stroke-miterlimit:4;stroke-opacity:.93023257"/></svg>